<?xml version="1.0" encoding="UTF-8" standalone="no"?>
<svg
   xmlns:dc="http://purl.org/dc/elements/1.1/"
   xmlns:cc="http://creativecommons.org/ns#"
   xmlns:rdf="http://www.w3.org/1999/02/22-rdf-syntax-ns#"
   xmlns:svg="http://www.w3.org/2000/svg"
   xmlns="http://www.w3.org/2000/svg"
   viewBox="0 0 126.81199 126.81066"
   height="126.81066"
   width="126.812"
   xml:space="preserve"
   id="svg2"
   version="1.1"><metadata
     id="metadata8"><rdf:RDF><cc:Work
         rdf:about=""><dc:format>image/svg+xml</dc:format><dc:type
           rdf:resource="http://purl.org/dc/dcmitype/StillImage" /><dc:title></dc:title></cc:Work></rdf:RDF></metadata><defs
     id="defs6"><clipPath
       id="clipPath18"
       clipPathUnits="userSpaceOnUse"><path
         id="path16"
         d="M 0,595.28 H 841.89 V 0 H 0 Z" /></clipPath></defs><g
     transform="matrix(1.3333333,0,0,-1.3333333,-757.07905,662.51065)"
     id="g10"><g
       transform="translate(168.748,493.1184)"
       id="g20"><path
         id="path22"
         style="fill:#ef5622;fill-opacity:1;fill-rule:nonzero;stroke:none"
         d="m 0,0 c -24.127,0 -43.756,-19.629 -43.756,-43.756 0,-24.127 19.629,-43.756 43.756,-43.756 24.127,0 43.756,19.629 43.756,43.756 C 43.756,-19.629 24.127,0 0,0 m 0,-91.512 c -26.333,0 -47.756,21.423 -47.756,47.756 C -47.756,-17.423 -26.333,4 0,4 26.333,4 47.756,-17.423 47.756,-43.756 47.756,-70.089 26.333,-91.512 0,-91.512" /></g><g
       transform="translate(200.428,439.7177)"
       id="g24"><path
         id="path26"
         style="fill:#ffffff;fill-opacity:1;fill-rule:nonzero;stroke:none"
         d="m 0,0 c 0,-12.939 -10.489,-23.428 -23.428,-23.428 -12.939,0 -23.428,10.489 -23.428,23.428 z" /></g><g
       transform="translate(155.6646,437.7175)"
       id="g28"><path
         id="path30"
         style="fill:#ef5622;fill-opacity:1;fill-rule:nonzero;stroke:none"
         d="m 0,0 c 1.012,-10.881 10.194,-19.428 21.335,-19.428 11.142,0 20.324,8.547 21.336,19.428 z m 21.335,-23.428 c -14.021,0 -25.428,11.407 -25.428,25.428 0,1.104 0.896,2 2,2 h 46.857 c 1.104,0 2,-0.896 2,-2 0,-14.021 -11.408,-25.428 -25.429,-25.428" /></g><g
       transform="translate(168.9619,452.7678)"
       id="g32"><path
         id="path34"
         style="fill:#ef5622;fill-opacity:1;fill-rule:nonzero;stroke:none"
         d="m 0,0 c -1.104,0 -2,0.896 -2,2 0,3.829 -3.115,6.943 -6.943,6.943 -3.829,0 -6.944,-3.114 -6.944,-6.943 0,-1.104 -0.896,-2 -2,-2 -1.105,0 -2,0.896 -2,2 0,6.034 4.909,10.943 10.944,10.943 C -2.909,12.943 2,8.034 2,2 2,0.896 1.104,0 0,0" /></g><g
       transform="translate(203.4585,452.7678)"
       id="g36"><path
         id="path38"
         style="fill:#ef5622;fill-opacity:1;fill-rule:nonzero;stroke:none"
         d="m 0,0 c -1.104,0 -2,0.896 -2,2 0,3.829 -3.115,6.943 -6.943,6.943 -3.829,0 -6.944,-3.114 -6.944,-6.943 0,-1.104 -0.896,-2 -2,-2 -1.105,0 -2,0.896 -2,2 0,6.034 4.909,10.943 10.944,10.943 C -2.909,12.943 2,8.034 2,2 2,0.896 1.104,0 0,0" /></g><g
       id="g1186"><g
         id="g40"
         transform="translate(615.3643,492.883)"><path
           d="m 0,0 c -24.017,0 -43.555,-19.539 -43.555,-43.554 0,-24.016 19.538,-43.554 43.555,-43.554 24.016,0 43.554,19.538 43.554,43.554 C 43.554,-19.539 24.016,0 0,0 m 0,-91.108 c -26.222,0 -47.555,21.333 -47.555,47.554 C -47.555,-17.333 -26.222,4 0,4 26.222,4 47.554,-17.333 47.554,-43.554 47.554,-69.775 26.222,-91.108 0,-91.108"
           style="fill:#50544d;fill-opacity:1;fill-rule:nonzero;stroke:none"
           id="path42" /></g><g
         id="g44"
         transform="translate(587.6953,425.0168)"><path
           d="M 0,0 H 40.763 C 39.754,10.357 30.998,18.479 20.382,18.479 9.765,18.479 1.009,10.357 0,0 M 42.859,-4 H -2.097 c -1.104,0 -2,0.896 -2,2 0,13.498 10.982,24.479 24.479,24.479 13.497,0 24.477,-10.981 24.477,-24.479 0,-1.104 -0.895,-2 -2,-2"
           style="fill:#50544d;fill-opacity:1;fill-rule:nonzero;stroke:none"
           id="path46" /></g><g
         id="g48"
         transform="translate(596.2783,451.9421)"><path
           d="m 0,0 c -1.104,0 -2,0.896 -2,2 0,3.629 -2.952,6.581 -6.581,6.581 -3.629,0 -6.581,-2.952 -6.581,-6.581 0,-1.104 -0.896,-2 -2,-2 -1.105,0 -2,0.896 -2,2 0,5.834 4.747,10.581 10.581,10.581 C -2.747,12.581 2,7.834 2,2 2,0.896 1.104,0 0,0"
           style="fill:#50544d;fill-opacity:1;fill-rule:nonzero;stroke:none"
           id="path50" /></g><g
         id="g52"
         transform="translate(629.377,451.9421)"><path
           d="m 0,0 c -1.104,0 -2,0.896 -2,2 0,3.629 -2.952,6.581 -6.581,6.581 -3.629,0 -6.581,-2.952 -6.581,-6.581 0,-1.104 -0.896,-2 -2,-2 -1.105,0 -2,0.896 -2,2 0,5.834 4.747,10.581 10.581,10.581 C -2.747,12.581 2,7.834 2,2 2,0.896 1.104,0 0,0"
           style="fill:#50544d;fill-opacity:1;fill-rule:nonzero;stroke:none"
           id="path54" /></g></g><g
       transform="translate(505.5488,493.7849)"
       id="g56"><path
         id="path58"
         style="fill:#606fbf;fill-opacity:1;fill-rule:nonzero;stroke:none"
         d="m 0,0 c -24.016,0 -43.554,-19.538 -43.554,-43.554 0,-24.015 19.538,-43.554 43.554,-43.554 24.017,0 43.555,19.539 43.555,43.554 C 43.555,-19.538 24.017,0 0,0 m 0,-91.108 c -26.222,0 -47.554,21.333 -47.554,47.554 C -47.554,-17.333 -26.222,4 0,4 26.222,4 47.555,-17.333 47.555,-43.554 47.555,-69.775 26.222,-91.108 0,-91.108" /></g><g
       transform="translate(471.1152,457.2444)"
       id="g60"><path
         id="path62"
         style="fill:#606fbf;fill-opacity:1;fill-rule:nonzero;stroke:none"
         d="m 0,0 c -0.26,0 -0.523,0.051 -0.778,0.158 -1.017,0.431 -1.493,1.604 -1.063,2.621 1.735,4.103 5.735,6.754 10.19,6.754 4.434,0 8.426,-2.634 10.171,-6.711 C 18.954,1.806 18.482,0.631 17.467,0.196 16.454,-0.238 15.275,0.233 14.842,1.249 13.729,3.852 11.18,5.533 8.349,5.533 5.504,5.533 2.95,3.841 1.843,1.222 1.521,0.458 0.779,0 0,0" /></g><g
       transform="translate(499.5947,457.2444)"
       id="g64"><path
         id="path66"
         style="fill:#606fbf;fill-opacity:1;fill-rule:nonzero;stroke:none"
         d="m 0,0 c -0.26,0 -0.523,0.051 -0.778,0.158 -1.017,0.431 -1.493,1.604 -1.063,2.621 1.735,4.103 5.735,6.754 10.19,6.754 4.433,0 8.425,-2.634 10.171,-6.711 C 18.954,1.807 18.483,0.631 17.468,0.196 16.452,-0.236 15.276,0.233 14.842,1.248 13.728,3.851 11.179,5.533 8.349,5.533 5.504,5.533 2.95,3.841 1.843,1.222 1.521,0.458 0.779,0 0,0" /></g><g
       transform="translate(477.7012,422.2346)"
       id="g68"><path
         id="path70"
         style="fill:#606fbf;fill-opacity:1;fill-rule:nonzero;stroke:none"
         d="m 0,0 c -0.17,0 -0.344,0.022 -0.517,0.068 -1.067,0.285 -1.701,1.381 -1.417,2.448 1.998,7.489 7.616,13.3 15.027,15.543 11.712,3.545 24.133,-3.1 27.679,-14.816 C 41.093,2.186 40.495,1.069 39.438,0.75 38.387,0.43 37.265,1.027 36.944,2.084 34.035,11.689 23.857,17.141 14.251,14.231 8.176,12.392 3.57,7.627 1.932,1.485 1.692,0.59 0.884,0 0,0" /></g><g
       transform="translate(282,493.1184)"
       id="g72"><path
         id="path74"
         style="fill:#eba34d;fill-opacity:1;fill-rule:nonzero;stroke:none"
         d="m 0,0 c -24.127,0 -43.756,-19.629 -43.756,-43.756 0,-24.127 19.629,-43.756 43.756,-43.756 24.127,0 43.756,19.629 43.756,43.756 C 43.756,-19.629 24.127,0 0,0 m 0,-91.512 c -26.333,0 -47.756,21.423 -47.756,47.756 C -47.756,-17.423 -26.333,4 0,4 26.333,4 47.756,-17.423 47.756,-43.756 47.756,-70.089 26.333,-91.512 0,-91.512" /></g><g
       transform="translate(304.8481,452.5031)"
       id="g76"><path
         id="path78"
         style="fill:#eba34d;fill-opacity:1;fill-rule:nonzero;stroke:none"
         d="m 0,0 c -5.989,0 -10.861,4.872 -10.861,10.861 0,1.104 0.896,2 2,2 1.105,0 2,-0.896 2,-2 C -6.861,7.078 -3.783,4 0,4 c 3.783,0 6.861,3.078 6.861,6.861 0,1.104 0.895,2 2,2 1.104,0 2,-0.896 2,-2 C 10.861,4.872 5.989,0 0,0" /></g><g
       transform="translate(270.6704,452.5031)"
       id="g80"><path
         id="path82"
         style="fill:#eba34d;fill-opacity:1;fill-rule:nonzero;stroke:none"
         d="m 0,0 c -5.989,0 -10.861,4.872 -10.861,10.861 0,1.104 0.896,2 2,2 1.105,0 2,-0.896 2,-2 C -6.861,7.078 -3.783,4 0,4 c 3.783,0 6.861,3.078 6.861,6.861 0,1.104 0.895,2 2,2 1.104,0 2,-0.896 2,-2 C 10.861,4.872 5.989,0 0,0" /></g><g
       transform="translate(285.1099,415.6189)"
       id="g84"><path
         id="path86"
         style="fill:#eba34d;fill-opacity:1;fill-rule:nonzero;stroke:none"
         d="m 0,0 c -10.707,0 -20.062,7.929 -21.545,18.827 -0.149,1.094 0.618,2.103 1.712,2.252 1.096,0.146 2.103,-0.619 2.252,-1.713 1.319,-9.702 10.286,-16.525 19.989,-15.202 6.137,0.835 11.309,4.715 13.835,10.379 0.451,1.009 1.635,1.462 2.641,1.013 1.009,-0.45 1.462,-1.633 1.012,-2.641 C 16.803,5.976 10.467,1.223 2.947,0.2 1.958,0.066 0.972,0 0,0" /></g><g
       transform="translate(262.3892,432.9895)"
       id="g88"><path
         id="path90"
         style="fill:#eba34d;fill-opacity:1;fill-rule:nonzero;stroke:none"
         d="M 0,0 C -1.27,0 -2.542,0.231 -3.765,0.694 -4.797,1.085 -5.318,2.24 -4.926,3.273 -4.535,4.306 -3.382,4.827 -2.348,4.435 1.062,3.144 4.89,4.867 6.182,8.278 6.573,9.311 7.727,9.832 8.761,9.44 9.793,9.049 10.314,7.895 9.922,6.861 8.918,4.209 6.941,2.108 4.356,0.943 2.963,0.315 1.483,0 0,0" /></g><g
       transform="translate(395,493.2849)"
       id="g92"><path
         id="path94"
         style="fill:#5ec577;fill-opacity:1;fill-rule:nonzero;stroke:none"
         d="m 0,0 c -23.713,0 -43.005,-19.292 -43.005,-43.005 0,-23.713 19.292,-43.005 43.005,-43.005 23.713,0 43.005,19.292 43.005,43.005 C 43.005,-19.292 23.713,0 0,0 m 0,-90.01 c -25.918,0 -47.005,21.087 -47.005,47.005 C -47.005,-17.086 -25.918,4 0,4 25.918,4 47.005,-17.086 47.005,-43.005 47.005,-68.923 25.918,-90.01 0,-90.01" /></g><g
       transform="translate(395.853,422.0339)"
       id="g96"><path
         id="path98"
         style="fill:#5ec577;fill-opacity:1;fill-rule:nonzero;stroke:none"
         d="m 0,0 c -14.37,0 -24.946,1.391 -25.104,1.412 -1.094,0.147 -1.862,1.154 -1.715,2.249 0.147,1.095 1.156,1.864 2.249,1.715 C -24.337,5.345 -1.041,2.289 23.233,5.378 24.328,5.519 25.331,4.742 25.47,3.646 25.609,2.551 24.834,1.549 23.738,1.41 15.431,0.353 7.233,0 0,0" /></g><g
       transform="translate(373.8335,459.57)"
       id="g100"><path
         id="path102"
         style="fill:#5ec577;fill-opacity:1;fill-rule:nonzero;stroke:none"
         d="m 0,0 c -2.135,0 -3.871,-1.736 -3.871,-3.871 0,-2.134 1.736,-3.871 3.871,-3.871 2.134,0 3.871,1.737 3.871,3.871 C 3.871,-1.736 2.134,0 0,0 m 0,-11.742 c -4.34,0 -7.871,3.531 -7.871,7.871 C -7.871,0.469 -4.34,4 0,4 4.34,4 7.871,0.469 7.871,-3.871 7.871,-8.211 4.34,-11.742 0,-11.742" /></g><g
       transform="translate(416.5,458.9035)"
       id="g104"><path
         id="path106"
         style="fill:#5ec577;fill-opacity:1;fill-rule:nonzero;stroke:none"
         d="m 0,0 c -2.135,0 -3.871,-1.736 -3.871,-3.871 0,-2.135 1.736,-3.871 3.871,-3.871 2.135,0 3.871,1.736 3.871,3.871 C 3.871,-1.736 2.135,0 0,0 m 0,-11.742 c -4.34,0 -7.871,3.531 -7.871,7.871 C -7.871,0.469 -4.34,4 0,4 4.34,4 7.871,0.469 7.871,-3.871 7.871,-8.211 4.34,-11.742 0,-11.742" /></g><g
       transform="translate(168.748,374.6184)"
       id="g108"><path
         id="path110"
         style="fill:#ef5622;fill-opacity:1;fill-rule:nonzero;stroke:none"
         d="m 0,0 c -24.403,0 -44.256,-19.854 -44.256,-44.256 0,-24.403 19.853,-44.256 44.256,-44.256 24.403,0 44.256,19.853 44.256,44.256 C 44.256,-19.854 24.403,0 0,0 m 0,-91.512 c -26.057,0 -47.256,21.199 -47.256,47.256 C -47.256,-18.199 -26.057,3 0,3 26.057,3 47.256,-18.199 47.256,-44.256 47.256,-70.313 26.057,-91.512 0,-91.512" /></g><g
       transform="translate(200.428,320.7177)"
       id="g112"><path
         id="path114"
         style="fill:#ffffff;fill-opacity:1;fill-rule:nonzero;stroke:none"
         d="m 0,0 c 0,-12.939 -10.489,-23.428 -23.428,-23.428 -12.939,0 -23.428,10.489 -23.428,23.428 z" /></g><g
       transform="translate(155.1226,319.2175)"
       id="g116"><path
         id="path118"
         style="fill:#ef5622;fill-opacity:1;fill-rule:nonzero;stroke:none"
         d="m 0,0 c 0.773,-11.394 10.29,-20.428 21.877,-20.428 11.588,0 21.104,9.034 21.878,20.428 z m 21.877,-23.428 c -13.745,0 -24.928,11.183 -24.928,24.928 0,0.829 0.672,1.5 1.5,1.5 h 46.857 c 0.828,0 1.5,-0.671 1.5,-1.5 0,-13.745 -11.183,-24.928 -24.929,-24.928" /></g><g
       transform="translate(168.9619,334.2678)"
       id="g120"><path
         id="path122"
         style="fill:#ef5622;fill-opacity:1;fill-rule:nonzero;stroke:none"
         d="m 0,0 c -0.829,0 -1.5,0.671 -1.5,1.5 0,4.104 -3.339,7.443 -7.443,7.443 -4.105,0 -7.444,-3.339 -7.444,-7.443 0,-0.829 -0.672,-1.5 -1.5,-1.5 -0.829,0 -1.5,0.671 -1.5,1.5 0,5.758 4.685,10.443 10.444,10.443 C -3.185,11.943 1.5,7.258 1.5,1.5 1.5,0.671 0.829,0 0,0" /></g><g
       transform="translate(203.4585,334.2678)"
       id="g124"><path
         id="path126"
         style="fill:#ef5622;fill-opacity:1;fill-rule:nonzero;stroke:none"
         d="m 0,0 c -0.829,0 -1.5,0.671 -1.5,1.5 0,4.104 -3.339,7.443 -7.443,7.443 -4.105,0 -7.444,-3.339 -7.444,-7.443 0,-0.829 -0.672,-1.5 -1.5,-1.5 -0.829,0 -1.5,0.671 -1.5,1.5 0,5.758 4.685,10.443 10.444,10.443 C -3.185,11.943 1.5,7.258 1.5,1.5 1.5,0.671 0.829,0 0,0" /></g><g
       transform="translate(615.3643,374.383)"
       id="g128"><path
         id="path130"
         style="fill:#50544d;fill-opacity:1;fill-rule:nonzero;stroke:none"
         d="m 0,0 c -24.292,0 -44.055,-19.763 -44.055,-44.054 0,-24.292 19.763,-44.054 44.055,-44.054 24.291,0 44.054,19.762 44.054,44.054 C 44.054,-19.763 24.291,0 0,0 m 0,-91.108 c -25.946,0 -47.055,21.108 -47.055,47.054 C -47.055,-18.108 -25.946,3 0,3 25.945,3 47.054,-18.108 47.054,-44.054 47.054,-70 25.945,-91.108 0,-91.108" /></g><g
       transform="translate(587.1514,305.5168)"
       id="g132"><path
         id="path134"
         style="fill:#50544d;fill-opacity:1;fill-rule:nonzero;stroke:none"
         d="M 0,0 H 41.851 C 41.079,10.871 31.988,19.479 20.926,19.479 9.862,19.479 0.771,10.871 0,0 M 43.403,-3 H -1.553 c -0.828,0 -1.5,0.671 -1.5,1.5 0,13.222 10.757,23.979 23.979,23.979 13.221,0 23.977,-10.757 23.977,-23.979 0,-0.829 -0.672,-1.5 -1.5,-1.5" /></g><g
       transform="translate(596.2783,333.4421)"
       id="g136"><path
         id="path138"
         style="fill:#50544d;fill-opacity:1;fill-rule:nonzero;stroke:none"
         d="m 0,0 c -0.828,0 -1.5,0.671 -1.5,1.5 0,3.904 -3.177,7.081 -7.081,7.081 -3.904,0 -7.081,-3.177 -7.081,-7.081 0,-0.829 -0.672,-1.5 -1.5,-1.5 -0.828,0 -1.5,0.671 -1.5,1.5 0,5.559 4.522,10.081 10.081,10.081 C -3.022,11.581 1.5,7.059 1.5,1.5 1.5,0.671 0.828,0 0,0" /></g><g
       transform="translate(629.377,333.4421)"
       id="g140"><path
         id="path142"
         style="fill:#50544d;fill-opacity:1;fill-rule:nonzero;stroke:none"
         d="m 0,0 c -0.828,0 -1.5,0.671 -1.5,1.5 0,3.904 -3.177,7.081 -7.081,7.081 -3.904,0 -7.081,-3.177 -7.081,-7.081 0,-0.829 -0.672,-1.5 -1.5,-1.5 -0.828,0 -1.5,0.671 -1.5,1.5 0,5.559 4.522,10.081 10.081,10.081 C -3.022,11.581 1.5,7.059 1.5,1.5 1.5,0.671 0.828,0 0,0" /></g><g
       transform="translate(505.5488,375.2849)"
       id="g144"><path
         id="path146"
         style="fill:#606fbf;fill-opacity:1;fill-rule:nonzero;stroke:none"
         d="m 0,0 c -24.291,0 -44.054,-19.762 -44.054,-44.054 0,-24.292 19.763,-44.054 44.054,-44.054 24.292,0 44.055,19.762 44.055,44.054 C 44.055,-19.762 24.292,0 0,0 m 0,-91.108 c -25.945,0 -47.054,21.108 -47.054,47.054 C -47.054,-18.108 -25.945,3 0,3 25.946,3 47.055,-18.108 47.055,-44.054 47.055,-70 25.946,-91.108 0,-91.108" /></g><g
       transform="translate(471.1152,338.7444)"
       id="g148"><path
         id="path150"
         style="fill:#606fbf;fill-opacity:1;fill-rule:nonzero;stroke:none"
         d="m 0,0 c -0.194,0 -0.393,0.038 -0.583,0.119 -0.764,0.322 -1.12,1.203 -0.798,1.966 1.657,3.917 5.476,6.448 9.73,6.448 4.234,0 8.046,-2.515 9.711,-6.408 C 18.386,1.363 18.032,0.482 17.271,0.156 16.507,-0.171 15.626,0.184 15.302,0.945 14.109,3.732 11.38,5.533 8.349,5.533 5.303,5.533 2.568,3.721 1.383,0.916 1.141,0.344 0.585,0 0,0" /></g><g
       transform="translate(499.5947,338.7444)"
       id="g152"><path
         id="path154"
         style="fill:#606fbf;fill-opacity:1;fill-rule:nonzero;stroke:none"
         d="m 0,0 c -0.194,0 -0.393,0.038 -0.583,0.119 -0.764,0.322 -1.12,1.203 -0.798,1.966 1.657,3.917 5.476,6.448 9.73,6.448 4.233,0 8.045,-2.515 9.711,-6.408 C 18.386,1.364 18.032,0.482 17.271,0.156 16.506,-0.171 15.627,0.184 15.302,0.945 14.108,3.732 11.38,5.533 8.349,5.533 5.303,5.533 2.568,3.721 1.383,0.916 1.141,0.344 0.585,0 0,0" /></g><g
       transform="translate(477.7012,303.7346)"
       id="g156"><path
         id="path158"
         style="fill:#606fbf;fill-opacity:1;fill-rule:nonzero;stroke:none"
         d="m 0,0 c -0.128,0 -0.258,0.017 -0.388,0.051 -0.8,0.214 -1.276,1.036 -1.062,1.836 1.953,7.321 7.444,13.001 14.687,15.194 11.451,3.467 23.589,-3.03 27.057,-14.483 0.24,-0.793 -0.208,-1.63 -1.001,-1.87 -0.789,-0.24 -1.63,0.208 -1.87,1.001 -2.987,9.87 -13.454,15.466 -23.317,12.48 C 7.864,12.32 3.132,7.424 1.448,1.114 1.27,0.443 0.663,0 0,0" /></g><g
       transform="translate(282,374.6184)"
       id="g160"><path
         id="path162"
         style="fill:#eba34d;fill-opacity:1;fill-rule:nonzero;stroke:none"
         d="m 0,0 c -24.403,0 -44.256,-19.854 -44.256,-44.256 0,-24.403 19.853,-44.256 44.256,-44.256 24.403,0 44.256,19.853 44.256,44.256 C 44.256,-19.854 24.403,0 0,0 m 0,-91.512 c -26.057,0 -47.256,21.199 -47.256,47.256 C -47.256,-18.199 -26.057,3 0,3 26.057,3 47.256,-18.199 47.256,-44.256 47.256,-70.313 26.057,-91.512 0,-91.512" /></g><g
       transform="translate(304.8481,334.0031)"
       id="g164"><path
         id="path166"
         style="fill:#eba34d;fill-opacity:1;fill-rule:nonzero;stroke:none"
         d="m 0,0 c -5.713,0 -10.361,4.648 -10.361,10.361 0,0.828 0.672,1.5 1.5,1.5 0.829,0 1.5,-0.672 1.5,-1.5 C -7.361,6.302 -4.059,3 0,3 c 4.059,0 7.361,3.302 7.361,7.361 0,0.828 0.671,1.5 1.5,1.5 0.828,0 1.5,-0.672 1.5,-1.5 C 10.361,4.648 5.713,0 0,0" /></g><g
       transform="translate(270.6704,334.0031)"
       id="g168"><path
         id="path170"
         style="fill:#eba34d;fill-opacity:1;fill-rule:nonzero;stroke:none"
         d="m 0,0 c -5.713,0 -10.361,4.648 -10.361,10.361 0,0.828 0.672,1.5 1.5,1.5 0.829,0 1.5,-0.672 1.5,-1.5 C -7.361,6.302 -4.059,3 0,3 c 4.059,0 7.361,3.302 7.361,7.361 0,0.828 0.671,1.5 1.5,1.5 0.828,0 1.5,-0.672 1.5,-1.5 C 10.361,4.648 5.713,0 0,0" /></g><g
       transform="translate(285.1099,297.1189)"
       id="g172"><path
         id="path174"
         style="fill:#eba34d;fill-opacity:1;fill-rule:nonzero;stroke:none"
         d="m 0,0 c -10.461,0 -19.601,7.747 -21.049,18.395 -0.112,0.82 0.463,1.576 1.284,1.688 0.814,0.11 1.576,-0.463 1.688,-1.284 0.658,-4.833 3.158,-9.12 7.039,-12.072 3.882,-2.952 8.684,-4.218 13.514,-3.559 6.31,0.859 11.627,4.848 14.224,10.672 0.337,0.757 1.224,1.096 1.981,0.759 0.756,-0.337 1.096,-1.224 0.759,-1.981 C 16.417,5.839 10.227,1.195 2.88,0.196 1.913,0.064 0.95,0 0,0" /></g><g
       transform="translate(262.3735,314.4948)"
       id="g176"><path
         id="path178"
         style="fill:#eba34d;fill-opacity:1;fill-rule:nonzero;stroke:none"
         d="M 0,0 C -1.188,0 -2.396,0.211 -3.572,0.656 -4.347,0.95 -4.737,1.816 -4.443,2.59 -4.15,3.365 -3.285,3.756 -2.509,3.462 1.159,2.071 5.275,3.926 6.665,7.596 6.958,8.371 7.824,8.763 8.599,8.467 9.374,8.174 9.764,7.308 9.471,6.533 7.94,2.493 4.084,0 0,0" /></g><g
       transform="translate(395,374.7849)"
       id="g180"><path
         id="path182"
         style="fill:#5ec577;fill-opacity:1;fill-rule:nonzero;stroke:none"
         d="m 0,0 c -23.989,0 -43.505,-19.516 -43.505,-43.505 0,-23.989 19.516,-43.505 43.505,-43.505 23.989,0 43.505,19.516 43.505,43.505 C 43.505,-19.516 23.989,0 0,0 m 0,-90.01 c -25.643,0 -46.505,20.862 -46.505,46.505 C -46.505,-17.862 -25.643,3 0,3 25.643,3 46.505,-17.862 46.505,-43.505 46.505,-69.148 25.643,-90.01 0,-90.01" /></g><g
       transform="translate(395.8501,303.5334)"
       id="g184"><path
         id="path186"
         style="fill:#5ec577;fill-opacity:1;fill-rule:nonzero;stroke:none"
         d="m 0,0 c -14.329,0 -24.876,1.387 -25.034,1.408 -0.821,0.111 -1.397,0.865 -1.286,1.687 0.11,0.821 0.872,1.389 1.686,1.286 C -24.401,4.35 -1.045,1.286 23.299,4.382 24.124,4.489 24.873,3.905 24.977,3.084 25.082,2.262 24.5,1.511 23.678,1.407 15.39,0.352 7.215,0 0,0" /></g><g
       transform="translate(373.8335,341.07)"
       id="g188"><path
         id="path190"
         style="fill:#5ec577;fill-opacity:1;fill-rule:nonzero;stroke:none"
         d="m 0,0 c -2.41,0 -4.371,-1.96 -4.371,-4.371 0,-2.41 1.961,-4.371 4.371,-4.371 2.41,0 4.371,1.961 4.371,4.371 C 4.371,-1.96 2.41,0 0,0 m 0,-11.742 c -4.064,0 -7.371,3.307 -7.371,7.371 C -7.371,-0.307 -4.064,3 0,3 4.064,3 7.371,-0.307 7.371,-4.371 7.371,-8.435 4.064,-11.742 0,-11.742" /></g><g
       transform="translate(416.5,340.4035)"
       id="g192"><path
         id="path194"
         style="fill:#5ec577;fill-opacity:1;fill-rule:nonzero;stroke:none"
         d="m 0,0 c -2.41,0 -4.371,-1.961 -4.371,-4.371 0,-2.41 1.961,-4.371 4.371,-4.371 2.41,0 4.371,1.961 4.371,4.371 C 4.371,-1.961 2.41,0 0,0 m 0,-11.742 c -4.064,0 -7.371,3.306 -7.371,7.371 C -7.371,-0.307 -4.064,3 0,3 4.064,3 7.371,-0.307 7.371,-4.371 7.371,-8.436 4.064,-11.742 0,-11.742" /></g></g></svg>